HIERARCHY
ROOT Hips
{
    OFFSET 0.000000 0.000000 0.000000
    CHANNELS 6 Xposition Yposition Zposition Zrotation Xrotation Yrotation
    JOINT Spine
    {
        OFFSET -0.000000 7.236184 0.000000
        CHANNELS 3 Zrotation Xrotation Yrotation
        JOINT Spine1
        {
            OFFSET -0.000000 20.420147 0.000000
            CHANNELS 3 Zrotation Xrotation Yrotation
            JOINT Neck
            {
                OFFSET -0.000000 20.336288 1.848754
                CHANNELS 3 Zrotation Xrotation Yrotation
                JOINT Head
                {
                    OFFSET -0.000000 12.354461 -1.764923
                    CHANNELS 3 Zrotation Xrotation Yrotation
                    End Site
                    {
                        OFFSET -0.000000 22.061537 0.000000
                    }
                }
            }
            JOINT LeftShoulder
            {
                OFFSET 3.573296 18.396038 -0.314103
                CHANNELS 3 Zrotation Xrotation Yrotation
                JOINT LeftArm
                {
                    OFFSET 10.880760 0.000000 0.000000
                    CHANNELS 3 Zrotation Xrotation Yrotation
                    JOINT LeftForeArm
                    {
                        OFFSET 27.185530 0.000000 0.000000
                        CHANNELS 3 Zrotation Xrotation Yrotation
                        JOINT LeftHand
                        {
                            OFFSET 27.825975 0.000000 0.000000
                            CHANNELS 3 Zrotation Xrotation Yrotation
                            End Site
                            {
                                OFFSET 13.236923 0.000000 0.000000
                            }
                        }
                    }
                }
            }
            JOINT RightShoulder
            {
                OFFSET -3.474926 18.396038 -0.314103
                CHANNELS 3 Zrotation Xrotation Yrotation
                JOINT RightArm
                {
                    OFFSET -10.880760 0.000000 0.000000
                    CHANNELS 3 Zrotation Xrotation Yrotation
                    JOINT RightForeArm
                    {
                        OFFSET -27.185530 0.000000 0.000000
                        CHANNELS 3 Zrotation Xrotation Yrotation
                        JOINT RightHand
                        {
                            OFFSET -27.825975 0.000000 0.000000
                            CHANNELS 3 Zrotation Xrotation Yrotation
                            End Site
                            {
                                OFFSET -13.236923 0.000000 0.000000
                            }
                        }
                    }
                }
            }
        }
    }
    JOINT LeftUpLeg
    {
        OFFSET 8.824615 0.000000 0.000000
        CHANNELS 3 Zrotation Xrotation Yrotation
        JOINT LeftLeg
        {
            OFFSET -0.000000 -35.111282 0.000000
            CHANNELS 3 Zrotation Xrotation Yrotation
            JOINT LeftFoot
            {
                OFFSET -0.000000 -42.324711 0.000000
                CHANNELS 3 Zrotation Xrotation Yrotation
                JOINT LeftToeBase
                {
                    OFFSET -0.000000 -5.735999 13.236923
                    CHANNELS 3 Zrotation Xrotation Yrotation
                    End Site
                    {
                        OFFSET -0.000000 0.000000 3.529846
                    }
                }
            }
        }
    }
    JOINT RightUpLeg
    {
        OFFSET -8.824615 0.000000 0.000000
        CHANNELS 3 Zrotation Xrotation Yrotation
        JOINT RightLeg
        {
            OFFSET -0.000000 -35.111282 0.000000
            CHANNELS 3 Zrotation Xrotation Yrotation
            JOINT RightFoot
            {
                OFFSET -0.000000 -42.324711 0.000000
                CHANNELS 3 Zrotation Xrotation Yrotation
                JOINT RightToeBase
                {
                    OFFSET -0.000000 -5.735999 13.236923
                    CHANNELS 3 Zrotation Xrotation Yrotation
                    End Site
                    {
                        OFFSET -0.000000 0.000000 3.529846
                    }
                }
            }
        }
    }
}
MOTION
Frames:    7
Frame Time:    0.008333
-0.188412    82.373451    108.062622    -1.912265    -11.498103    -179.433578    -1.003398    -16.742207    2.171548    -2.477170    6.810193    2.466619    2.645860    6.746066    -3.032891    6.249032    -4.120010    -2.277688    0.875475    15.950916    1.557869    -55.999233    18.831959    -25.469658    1.883075    -10.600376    -10.662815    4.858529    -10.437963    -0.249468    7.720130    20.622408    -7.681808    45.867008    46.199078    29.722624    -2.662682    -10.192433    17.898344    -15.836459    -9.285620    -3.598218    1.421149    -16.704033    -2.446914    -0.296690    19.116714    5.645638    -4.131772    -12.365242    -9.910744    -1.017827    0.419773    1.127371    -13.610208    -8.463818    -3.844543    3.160813    3.602202    -0.553381    7.943070    -3.730884    -10.003241    -0.807461    0.023098    0.873302
-0.269316    82.366661    108.056190    -1.880812    -11.508693    -179.401718    -1.028602    -16.713808    2.165585    -2.447696    6.786352    2.461834    2.606156    6.741908    -3.103164    6.340019    -4.220003    -2.325877    0.969347    15.697251    1.557415    -55.756729    17.631302    -25.125807    2.310582    -10.895833    -11.268975    4.907012    -10.684381    -0.297993    7.679062    20.624886    -7.740416    46.001263    46.161461    29.505388    -2.660416    -10.289892    18.008780    -15.820158    -9.386581    -3.562114    1.351363    -16.868141    -2.463167    -0.260721    19.404816    5.589956    -4.061213    -12.498002    -9.874549    -1.017540    0.409355    1.127074    -13.665105    -8.645657    -3.963980    3.166753    3.930951    -0.605307    8.034736    -3.754757    -9.863729    -0.803163    -0.009432    0.868692
-0.355177    82.359734    108.053040    -1.843483    -11.517517    -179.365631    -1.060620    -16.679422    2.156655    -2.401437    6.762539    2.454053    2.562168    6.742045    -3.175901    6.440662    -4.335099    -2.373426    1.076279    15.424026    1.548757    -55.461159    16.467518    -24.793562    2.820974    -11.217936    -12.008036    5.083934    -10.940817    -0.324603    7.633239    20.629873    -7.800274    46.139286    46.114902    29.269960    -2.658137    -10.392572    18.123648    -15.802858    -9.493742    -3.518254    1.283043    -17.037485    -2.475464    -0.221283    19.699108    5.524864    -3.990267    -12.630808    -9.837106    -1.017183    0.399696    1.126698    -13.719907    -8.854956    -4.084818    3.170154    4.309084    -0.653478    8.135811    -3.780751    -9.729877    -0.798470    -0.050690    0.863665
-0.445355    82.352798    108.053329    -1.800548    -11.523883    -179.326309    -1.098566    -16.639601    2.145396    -2.339496    6.739635    2.443847    2.514989    6.748402    -3.250736    6.551328    -4.464739    -2.419918    1.194292    15.135005    1.530832    -55.116020    15.361047    -24.479116    3.403960    -11.575120    -12.872932    5.372904    -11.213567    -0.327238    7.584259    20.636984    -7.861343    46.279247    46.059868    29.019136    -2.655683    -10.498616    18.239193    -15.788031    -9.605174    -3.467492    1.217421    -17.208139    -2.484719    -0.179790    19.993422    5.455448    -3.920728    -12.760409    -9.801286    -1.016513    0.391457    1.125973    -13.774594    -9.091234    -4.204374    3.171322    4.737192    -0.682866    8.246019    -3.810762    -9.617788    -0.793831    -0.101512    0.858708
-0.543054    82.345726    108.057259    -1.750630    -11.527260    -179.283234    -1.143184    -16.592316    2.131803    -2.260836    6.716733    2.431180    2.464261    6.762402    -3.330270    6.676465    -4.612354    -2.466919    1.327484    14.821424    1.502116    -54.712246    14.282115    -24.175169    4.070798    -11.993085    -13.891296    5.769167    -11.522150    -0.300563    7.531225    20.646235    -7.926097    46.425011    45.995388    28.746284    -2.652993    -10.610971    18.356327    -15.778734    -9.723670    -3.409967    1.152973    -17.383223    -2.492868    -0.136682    20.294085    5.382947    -3.851215    -12.888880    -9.766571    -1.015143    0.383430    1.124470    -13.831707    -9.364114    -4.325110    3.170748    5.233825    -0.683092    8.370023    -3.846492    -9.535226    -0.789315    -0.166430    0.853899
-0.645883    82.338867    108.065010    -1.695038    -11.526839    -179.238388    -1.192909    -16.538397    2.116393    -2.168368    6.694625    2.416634    2.412782    6.784813    -3.412328    6.813382    -4.772779    -2.513094    1.472548    14.492271    1.462279    -54.264076    13.265407    -23.893341    4.795464    -12.473285    -15.034597    6.250237    -11.867152    -0.240933    7.476746    20.656860    -7.993268    46.571720    45.923759    28.460075    -2.650140    -10.725677    18.468878    -15.779138    -9.844727    -3.349773    1.092053    -17.555080    -2.500896    -0.094566    20.588949    5.312507    -3.784686    -13.010116    -9.734587    -1.012641    0.374910    1.121717    -13.890469    -9.668853    -4.441365    3.169005    5.790436    -0.648582    8.505962    -3.885552    -9.490931    -0.785068    -0.246733    0.849399
-0.754474    82.332375    108.076767    -1.633698    -11.522094    -179.192520    -1.247517    -16.477325    2.099213    -2.063053    6.672924    2.400163    2.362240    6.817363    -3.496993    6.962164    -4.945869    -2.558548    1.630323    14.147403    1.410047    -53.775578    12.302016    -23.634161    5.569178    -13.026510    -16.301029    6.802701    -12.255928    -0.144233    7.421816    20.668755    -8.062891    46.718937    45.845394    28.160866    -2.647617    -10.842833    18.574961    -15.791447    -9.967859    -3.290639    1.034935    -17.721989    -2.509917    -0.055068    20.875954    5.246647    -3.721220    -13.122509    -9.705618    -1.008796    0.365295    1.117477    -13.951967    -10.008893    -4.551722    3.166708    6.412130    -0.582441    8.655831    -3.923815    -9.481688    -0.780403    -0.346670    0.844467
